<svg xmlns="http://www.w3.org/2000/svg" width="976.8" height="260.0" xmlns:xlink="http://www.w3.org/1999/xlink"><rect x="0" y="0.0" width="976.8" height="260.0" fill="#ffffff" /><text x="20.0" y="40.0" font-size="16px" dominant-baseline="middle" text-anchor="start" font-family="Arial" font-weight="normal" fill="#252b3a" >q0: </text><text x="20.0" y="100.0" font-size="16px" dominant-baseline="middle" text-anchor="start" font-family="Arial" font-weight="normal" fill="#252b3a" >q1: </text><text x="20.0" y="160.0" font-size="16px" dominant-baseline="middle" text-anchor="start" font-family="Arial" font-weight="normal" fill="#252b3a" >q2: </text><text x="20.0" y="220.0" font-size="16px" dominant-baseline="middle" text-anchor="start" font-family="Arial" font-weight="normal" fill="#252b3a" >q3: </text><line x1="48.8" x2="956.8" y1="40.0" y2="40.0" stroke="#adb0b8" stroke-width="1" /><line x1="48.8" x2="956.8" y1="100.0" y2="100.0" stroke="#adb0b8" stroke-width="1" /><line x1="48.8" x2="956.8" y1="160.0" y2="160.0" stroke="#adb0b8" stroke-width="1" /><line x1="48.8" x2="956.8" y1="220.0" y2="220.0" stroke="#adb0b8" stroke-width="1" /><rect x="72.8" y="20.0" width="80.0" height="40" rx="4" ry="4" stroke="#ffffff" stroke-width="0" fill="#fac209" fill-opacity="1" /><text x="112.8" y="36.0" font-size="20px" dominant-baseline="middle" text-anchor="middle" font-family="Arial" font-weight="normal" fill="#ffffff" >RY </text><text x="112.8" y="52.0" font-size="14.0px" dominant-baseline="middle" text-anchor="middle" font-family="Arial" font-weight="normal" fill="#ffffff" >-3.2075 </text><rect x="72.8" y="80.0" width="80.0" height="40" rx="4" ry="4" stroke="#ffffff" stroke-width="0" fill="#fac209" fill-opacity="1" /><text x="112.8" y="96.0" font-size="20px" dominant-baseline="middle" text-anchor="middle" font-family="Arial" font-weight="normal" fill="#ffffff" >RY </text><text x="112.8" y="112.0" font-size="14.0px" dominant-baseline="middle" text-anchor="middle" font-family="Arial" font-weight="normal" fill="#ffffff" >-0.2364 </text><rect x="72.8" y="140.0" width="80.0" height="40" rx="4" ry="4" stroke="#ffffff" stroke-width="0" fill="#fac209" fill-opacity="1" /><text x="112.8" y="156.0" font-size="20px" dominant-baseline="middle" text-anchor="middle" font-family="Arial" font-weight="normal" fill="#ffffff" >RY </text><text x="112.8" y="172.0" font-size="14.0px" dominant-baseline="middle" text-anchor="middle" font-family="Arial" font-weight="normal" fill="#ffffff" >-1.371 </text><rect x="72.8" y="200.0" width="80.0" height="40" rx="4" ry="4" stroke="#ffffff" stroke-width="0" fill="#fac209" fill-opacity="1" /><text x="112.8" y="216.0" font-size="20px" dominant-baseline="middle" text-anchor="middle" font-family="Arial" font-weight="normal" fill="#ffffff" >RY </text><text x="112.8" y="232.0" font-size="14.0px" dominant-baseline="middle" text-anchor="middle" font-family="Arial" font-weight="normal" fill="#ffffff" >-0.1406 </text><circle cx="192.8" cy="40.0" r="4" fill="#16acff" /><line x1="192.8" x2="192.8" y1="40.0" y2="100.0" stroke="#16acff" stroke-width="3" /><rect x="172.8" y="80.0" width="40" height="40" rx="4" ry="4" stroke="#ffffff" stroke-width="0" fill="#16acff" fill-opacity="1" /><line x1="178.8" x2="206.8" y1="100.0" y2="100.0" stroke="#ffffff" stroke-width="4" /><line x1="192.8" x2="192.8" y1="86.0" y2="114.0" stroke="#ffffff" stroke-width="4" /><circle cx="252.8" cy="100.0" r="4" fill="#16acff" /><line x1="252.8" x2="252.8" y1="100.0" y2="160.0" stroke="#16acff" stroke-width="3" /><rect x="232.8" y="140.0" width="40" height="40" rx="4" ry="4" stroke="#ffffff" stroke-width="0" fill="#16acff" fill-opacity="1" /><line x1="238.8" x2="266.8" y1="160.0" y2="160.0" stroke="#ffffff" stroke-width="4" /><line x1="252.8" x2="252.8" y1="146.0" y2="174.0" stroke="#ffffff" stroke-width="4" /><circle cx="312.8" cy="160.0" r="4" fill="#16acff" /><line x1="312.8" x2="312.8" y1="160.0" y2="220.0" stroke="#16acff" stroke-width="3" /><rect x="292.8" y="200.0" width="40" height="40" rx="4" ry="4" stroke="#ffffff" stroke-width="0" fill="#16acff" fill-opacity="1" /><line x1="298.8" x2="326.8" y1="220.0" y2="220.0" stroke="#ffffff" stroke-width="4" /><line x1="312.8" x2="312.8" y1="206.0" y2="234.0" stroke="#ffffff" stroke-width="4" /><rect x="232.8" y="20.0" width="80.0" height="40" rx="4" ry="4" stroke="#ffffff" stroke-width="0" fill="#fac209" fill-opacity="1" /><text x="272.8" y="36.0" font-size="20px" dominant-baseline="middle" text-anchor="middle" font-family="Arial" font-weight="normal" fill="#ffffff" >RY </text><text x="272.8" y="52.0" font-size="14.0px" dominant-baseline="middle" text-anchor="middle" font-family="Arial" font-weight="normal" fill="#ffffff" >-1.6052 </text><rect x="292.8" y="80.0" width="80.0" height="40" rx="4" ry="4" stroke="#ffffff" stroke-width="0" fill="#fac209" fill-opacity="1" /><text x="332.8" y="96.0" font-size="20px" dominant-baseline="middle" text-anchor="middle" font-family="Arial" font-weight="normal" fill="#ffffff" >RY </text><text x="332.8" y="112.0" font-size="14.0px" dominant-baseline="middle" text-anchor="middle" font-family="Arial" font-weight="normal" fill="#ffffff" >-0.1988 </text><rect x="352.8" y="140.0" width="80.0" height="40" rx="4" ry="4" stroke="#ffffff" stroke-width="0" fill="#fac209" fill-opacity="1" /><text x="392.8" y="156.0" font-size="20px" dominant-baseline="middle" text-anchor="middle" font-family="Arial" font-weight="normal" fill="#ffffff" >RY </text><text x="392.8" y="172.0" font-size="14.0px" dominant-baseline="middle" text-anchor="middle" font-family="Arial" font-weight="normal" fill="#ffffff" >1.6544 </text><rect x="352.8" y="200.0" width="80.0" height="40" rx="4" ry="4" stroke="#ffffff" stroke-width="0" fill="#fac209" fill-opacity="1" /><text x="392.8" y="216.0" font-size="20px" dominant-baseline="middle" text-anchor="middle" font-family="Arial" font-weight="normal" fill="#ffffff" >RY </text><text x="392.8" y="232.0" font-size="14.0px" dominant-baseline="middle" text-anchor="middle" font-family="Arial" font-weight="normal" fill="#ffffff" >-1.8348 </text><circle cx="412.8" cy="40.0" r="4" fill="#16acff" /><line x1="412.8" x2="412.8" y1="40.0" y2="100.0" stroke="#16acff" stroke-width="3" /><rect x="392.8" y="80.0" width="40" height="40" rx="4" ry="4" stroke="#ffffff" stroke-width="0" fill="#16acff" fill-opacity="1" /><line x1="398.8" x2="426.8" y1="100.0" y2="100.0" stroke="#ffffff" stroke-width="4" /><line x1="412.8" x2="412.8" y1="86.0" y2="114.0" stroke="#ffffff" stroke-width="4" /><circle cx="472.8" cy="100.0" r="4" fill="#16acff" /><line x1="472.8" x2="472.8" y1="100.0" y2="160.0" stroke="#16acff" stroke-width="3" /><rect x="452.8" y="140.0" width="40" height="40" rx="4" ry="4" stroke="#ffffff" stroke-width="0" fill="#16acff" fill-opacity="1" /><line x1="458.8" x2="486.8" y1="160.0" y2="160.0" stroke="#ffffff" stroke-width="4" /><line x1="472.8" x2="472.8" y1="146.0" y2="174.0" stroke="#ffffff" stroke-width="4" /><circle cx="532.8" cy="160.0" r="4" fill="#16acff" /><line x1="532.8" x2="532.8" y1="160.0" y2="220.0" stroke="#16acff" stroke-width="3" /><rect x="512.8" y="200.0" width="40" height="40" rx="4" ry="4" stroke="#ffffff" stroke-width="0" fill="#16acff" fill-opacity="1" /><line x1="518.8" x2="546.8" y1="220.0" y2="220.0" stroke="#ffffff" stroke-width="4" /><line x1="532.8" x2="532.8" y1="206.0" y2="234.0" stroke="#ffffff" stroke-width="4" /><rect x="452.8" y="20.0" width="80.0" height="40" rx="4" ry="4" stroke="#ffffff" stroke-width="0" fill="#fac209" fill-opacity="1" /><text x="492.8" y="36.0" font-size="20px" dominant-baseline="middle" text-anchor="middle" font-family="Arial" font-weight="normal" fill="#ffffff" >RY </text><text x="492.8" y="52.0" font-size="14.0px" dominant-baseline="middle" text-anchor="middle" font-family="Arial" font-weight="normal" fill="#ffffff" >-1.4961 </text><rect x="512.8" y="80.0" width="80.0" height="40" rx="4" ry="4" stroke="#ffffff" stroke-width="0" fill="#fac209" fill-opacity="1" /><text x="552.8" y="96.0" font-size="20px" dominant-baseline="middle" text-anchor="middle" font-family="Arial" font-weight="normal" fill="#ffffff" >RY </text><text x="552.8" y="112.0" font-size="14.0px" dominant-baseline="middle" text-anchor="middle" font-family="Arial" font-weight="normal" fill="#ffffff" >1.3359 </text><rect x="572.8" y="140.0" width="80.0" height="40" rx="4" ry="4" stroke="#ffffff" stroke-width="0" fill="#fac209" fill-opacity="1" /><text x="612.8" y="156.0" font-size="20px" dominant-baseline="middle" text-anchor="middle" font-family="Arial" font-weight="normal" fill="#ffffff" >RY </text><text x="612.8" y="172.0" font-size="14.0px" dominant-baseline="middle" text-anchor="middle" font-family="Arial" font-weight="normal" fill="#ffffff" >-1.6488 </text><rect x="572.8" y="200.0" width="80.0" height="40" rx="4" ry="4" stroke="#ffffff" stroke-width="0" fill="#fac209" fill-opacity="1" /><text x="612.8" y="216.0" font-size="20px" dominant-baseline="middle" text-anchor="middle" font-family="Arial" font-weight="normal" fill="#ffffff" >RY </text><text x="612.8" y="232.0" font-size="14.0px" dominant-baseline="middle" text-anchor="middle" font-family="Arial" font-weight="normal" fill="#ffffff" >-0.574 </text><circle cx="632.8" cy="40.0" r="4" fill="#16acff" /><line x1="632.8" x2="632.8" y1="40.0" y2="100.0" stroke="#16acff" stroke-width="3" /><rect x="612.8" y="80.0" width="40" height="40" rx="4" ry="4" stroke="#ffffff" stroke-width="0" fill="#16acff" fill-opacity="1" /><line x1="618.8" x2="646.8" y1="100.0" y2="100.0" stroke="#ffffff" stroke-width="4" /><line x1="632.8" x2="632.8" y1="86.0" y2="114.0" stroke="#ffffff" stroke-width="4" /><circle cx="692.8" cy="100.0" r="4" fill="#16acff" /><line x1="692.8" x2="692.8" y1="100.0" y2="160.0" stroke="#16acff" stroke-width="3" /><rect x="672.8" y="140.0" width="40" height="40" rx="4" ry="4" stroke="#ffffff" stroke-width="0" fill="#16acff" fill-opacity="1" /><line x1="678.8" x2="706.8" y1="160.0" y2="160.0" stroke="#ffffff" stroke-width="4" /><line x1="692.8" x2="692.8" y1="146.0" y2="174.0" stroke="#ffffff" stroke-width="4" /><circle cx="752.8" cy="160.0" r="4" fill="#16acff" /><line x1="752.8" x2="752.8" y1="160.0" y2="220.0" stroke="#16acff" stroke-width="3" /><rect x="732.8" y="200.0" width="40" height="40" rx="4" ry="4" stroke="#ffffff" stroke-width="0" fill="#16acff" fill-opacity="1" /><line x1="738.8" x2="766.8" y1="220.0" y2="220.0" stroke="#ffffff" stroke-width="4" /><line x1="752.8" x2="752.8" y1="206.0" y2="234.0" stroke="#ffffff" stroke-width="4" /><rect x="672.8" y="20.0" width="80.0" height="40" rx="4" ry="4" stroke="#ffffff" stroke-width="0" fill="#fac209" fill-opacity="1" /><text x="712.8" y="36.0" font-size="20px" dominant-baseline="middle" text-anchor="middle" font-family="Arial" font-weight="normal" fill="#ffffff" >RY </text><text x="712.8" y="52.0" font-size="14.0px" dominant-baseline="middle" text-anchor="middle" font-family="Arial" font-weight="normal" fill="#ffffff" >-0.0057 </text><rect x="732.8" y="80.0" width="80.0" height="40" rx="4" ry="4" stroke="#ffffff" stroke-width="0" fill="#fac209" fill-opacity="1" /><text x="772.8" y="96.0" font-size="20px" dominant-baseline="middle" text-anchor="middle" font-family="Arial" font-weight="normal" fill="#ffffff" >RY </text><text x="772.8" y="112.0" font-size="14.0px" dominant-baseline="middle" text-anchor="middle" font-family="Arial" font-weight="normal" fill="#ffffff" >0.0046 </text><rect x="792.8" y="140.0" width="80.0" height="40" rx="4" ry="4" stroke="#ffffff" stroke-width="0" fill="#fac209" fill-opacity="1" /><text x="832.8" y="156.0" font-size="20px" dominant-baseline="middle" text-anchor="middle" font-family="Arial" font-weight="normal" fill="#ffffff" >RY </text><text x="832.8" y="172.0" font-size="14.0px" dominant-baseline="middle" text-anchor="middle" font-family="Arial" font-weight="normal" fill="#ffffff" >-1.5404 </text><rect x="792.8" y="200.0" width="80.0" height="40" rx="4" ry="4" stroke="#ffffff" stroke-width="0" fill="#fac209" fill-opacity="1" /><text x="832.8" y="216.0" font-size="20px" dominant-baseline="middle" text-anchor="middle" font-family="Arial" font-weight="normal" fill="#ffffff" >RY </text><text x="832.8" y="232.0" font-size="14.0px" dominant-baseline="middle" text-anchor="middle" font-family="Arial" font-weight="normal" fill="#ffffff" >0.0023 </text><rect x="892.8" y="140.0" width="40" height="40" rx="4" ry="4" stroke="#ffffff" stroke-width="0" fill="#ff7272" fill-opacity="1" /><circle cx="912.8" cy="170.4" r="1.6" fill="#ffffff" /><path d="M 900.0 170.4 A 12.8 12.8 0 0 1 925.5999999999999 170.4" stroke="#ffffff" stroke-width="2.4000000000000004" fill-opacity="0" /><path d="M 916.9018483174859 153.93539030917347 L 925.2156921938165 149.13539030917346 L 925.2156921938165 158.73539030917345 L 921.8901546432843 156.81539030917347 L 914.0470765814496 170.4 L 912.3843078061834 169.44 L 920.2273858680181 155.85539030917346 Z" fill="#ffffff" /><rect x="892.8" y="200.0" width="40" height="40" rx="4" ry="4" stroke="#ffffff" stroke-width="0" fill="#ff7272" fill-opacity="1" /><circle cx="912.8" cy="230.4" r="1.6" fill="#ffffff" /><path d="M 900.0 230.4 A 12.8 12.8 0 0 1 925.5999999999999 230.4" stroke="#ffffff" stroke-width="2.4000000000000004" fill-opacity="0" /><path d="M 916.9018483174859 213.93539030917347 L 925.2156921938165 209.13539030917346 L 925.2156921938165 218.73539030917345 L 921.8901546432843 216.81539030917347 L 914.0470765814496 230.4 L 912.3843078061834 229.44 L 920.2273858680181 215.85539030917346 Z" fill="#ffffff" /></svg>