<svg xmlns="http://www.w3.org/2000/svg" width="1376.8" height="260.0" xmlns:xlink="http://www.w3.org/1999/xlink"><rect x="0" y="0.0" width="1376.8" height="260.0" fill="#ffffff" /><text x="20.0" y="40.0" font-size="16px" dominant-baseline="middle" text-anchor="start" font-family="Arial" font-weight="normal" fill="#252b3a" >q0: </text><text x="20.0" y="100.0" font-size="16px" dominant-baseline="middle" text-anchor="start" font-family="Arial" font-weight="normal" fill="#252b3a" >q1: </text><text x="20.0" y="160.0" font-size="16px" dominant-baseline="middle" text-anchor="start" font-family="Arial" font-weight="normal" fill="#252b3a" >q2: </text><text x="20.0" y="220.0" font-size="16px" dominant-baseline="middle" text-anchor="start" font-family="Arial" font-weight="normal" fill="#252b3a" >q3: </text><line x1="48.8" x2="1356.8" y1="40.0" y2="40.0" stroke="#adb0b8" stroke-width="1" /><line x1="48.8" x2="1356.8" y1="100.0" y2="100.0" stroke="#adb0b8" stroke-width="1" /><line x1="48.8" x2="1356.8" y1="160.0" y2="160.0" stroke="#adb0b8" stroke-width="1" /><line x1="48.8" x2="1356.8" y1="220.0" y2="220.0" stroke="#adb0b8" stroke-width="1" /><rect x="72.8" y="20.0" width="80.0" height="40" rx="4" ry="4" stroke="#ffffff" stroke-width="0" fill="#fac209" fill-opacity="1" /><text x="112.8" y="36.0" font-size="20px" dominant-baseline="middle" text-anchor="middle" font-family="Arial" font-weight="normal" fill="#ffffff" >RY </text><text x="112.8" y="52.0" font-size="14.0px" dominant-baseline="middle" text-anchor="middle" font-family="Arial" font-weight="normal" fill="#ffffff" >0.0653 </text><rect x="72.8" y="80.0" width="80.0" height="40" rx="4" ry="4" stroke="#ffffff" stroke-width="0" fill="#fac209" fill-opacity="1" /><text x="112.8" y="96.0" font-size="20px" dominant-baseline="middle" text-anchor="middle" font-family="Arial" font-weight="normal" fill="#ffffff" >RY </text><text x="112.8" y="112.0" font-size="14.0px" dominant-baseline="middle" text-anchor="middle" font-family="Arial" font-weight="normal" fill="#ffffff" >0.018 </text><rect x="172.8" y="80.0" width="80.0" height="40" rx="4" ry="4" stroke="#ffffff" stroke-width="0" fill="#c77532" fill-opacity="1" /><text x="212.8" y="96.0" font-size="20px" dominant-baseline="middle" text-anchor="middle" font-family="Arial" font-weight="normal" fill="#ffffff" >PFC </text><text x="212.8" y="112.0" font-size="14.0px" dominant-baseline="middle" text-anchor="middle" font-family="Arial" font-weight="normal" fill="#ffffff" >p=0.0195 </text><rect x="72.8" y="140.0" width="80.0" height="40" rx="4" ry="4" stroke="#ffffff" stroke-width="0" fill="#fac209" fill-opacity="1" /><text x="112.8" y="156.0" font-size="20px" dominant-baseline="middle" text-anchor="middle" font-family="Arial" font-weight="normal" fill="#ffffff" >RY </text><text x="112.8" y="172.0" font-size="14.0px" dominant-baseline="middle" text-anchor="middle" font-family="Arial" font-weight="normal" fill="#ffffff" >-0.6304 </text><rect x="72.8" y="200.0" width="80.0" height="40" rx="4" ry="4" stroke="#ffffff" stroke-width="0" fill="#fac209" fill-opacity="1" /><text x="112.8" y="216.0" font-size="20px" dominant-baseline="middle" text-anchor="middle" font-family="Arial" font-weight="normal" fill="#ffffff" >RY </text><text x="112.8" y="232.0" font-size="14.0px" dominant-baseline="middle" text-anchor="middle" font-family="Arial" font-weight="normal" fill="#ffffff" >-0.1156 </text><circle cx="292.8" cy="40.0" r="4" fill="#16acff" /><line x1="292.8" x2="292.8" y1="40.0" y2="100.0" stroke="#16acff" stroke-width="3" /><rect x="272.8" y="80.0" width="40" height="40" rx="4" ry="4" stroke="#ffffff" stroke-width="0" fill="#16acff" fill-opacity="1" /><line x1="278.8" x2="306.8" y1="100.0" y2="100.0" stroke="#ffffff" stroke-width="4" /><line x1="292.8" x2="292.8" y1="86.0" y2="114.0" stroke="#ffffff" stroke-width="4" /><circle cx="352.8" cy="100.0" r="4" fill="#16acff" /><line x1="352.8" x2="352.8" y1="100.0" y2="160.0" stroke="#16acff" stroke-width="3" /><rect x="332.8" y="140.0" width="40" height="40" rx="4" ry="4" stroke="#ffffff" stroke-width="0" fill="#16acff" fill-opacity="1" /><line x1="338.8" x2="366.8" y1="160.0" y2="160.0" stroke="#ffffff" stroke-width="4" /><line x1="352.8" x2="352.8" y1="146.0" y2="174.0" stroke="#ffffff" stroke-width="4" /><circle cx="412.8" cy="160.0" r="4" fill="#16acff" /><line x1="412.8" x2="412.8" y1="160.0" y2="220.0" stroke="#16acff" stroke-width="3" /><rect x="392.8" y="200.0" width="40" height="40" rx="4" ry="4" stroke="#ffffff" stroke-width="0" fill="#16acff" fill-opacity="1" /><line x1="398.8" x2="426.8" y1="220.0" y2="220.0" stroke="#ffffff" stroke-width="4" /><line x1="412.8" x2="412.8" y1="206.0" y2="234.0" stroke="#ffffff" stroke-width="4" /><rect x="332.8" y="20.0" width="80.0" height="40" rx="4" ry="4" stroke="#ffffff" stroke-width="0" fill="#fac209" fill-opacity="1" /><text x="372.8" y="36.0" font-size="20px" dominant-baseline="middle" text-anchor="middle" font-family="Arial" font-weight="normal" fill="#ffffff" >RY </text><text x="372.8" y="52.0" font-size="14.0px" dominant-baseline="middle" text-anchor="middle" font-family="Arial" font-weight="normal" fill="#ffffff" >-1.5887 </text><rect x="392.8" y="80.0" width="80.0" height="40" rx="4" ry="4" stroke="#ffffff" stroke-width="0" fill="#fac209" fill-opacity="1" /><text x="432.8" y="96.0" font-size="20px" dominant-baseline="middle" text-anchor="middle" font-family="Arial" font-weight="normal" fill="#ffffff" >RY </text><text x="432.8" y="112.0" font-size="14.0px" dominant-baseline="middle" text-anchor="middle" font-family="Arial" font-weight="normal" fill="#ffffff" >-0.0959 </text><rect x="452.8" y="140.0" width="80.0" height="40" rx="4" ry="4" stroke="#ffffff" stroke-width="0" fill="#fac209" fill-opacity="1" /><text x="492.8" y="156.0" font-size="20px" dominant-baseline="middle" text-anchor="middle" font-family="Arial" font-weight="normal" fill="#ffffff" >RY </text><text x="492.8" y="172.0" font-size="14.0px" dominant-baseline="middle" text-anchor="middle" font-family="Arial" font-weight="normal" fill="#ffffff" >-1.5835 </text><rect x="452.8" y="200.0" width="80.0" height="40" rx="4" ry="4" stroke="#ffffff" stroke-width="0" fill="#fac209" fill-opacity="1" /><text x="492.8" y="216.0" font-size="20px" dominant-baseline="middle" text-anchor="middle" font-family="Arial" font-weight="normal" fill="#ffffff" >RY </text><text x="492.8" y="232.0" font-size="14.0px" dominant-baseline="middle" text-anchor="middle" font-family="Arial" font-weight="normal" fill="#ffffff" >0.1822 </text><circle cx="512.8" cy="40.0" r="4" fill="#16acff" /><line x1="512.8" x2="512.8" y1="40.0" y2="100.0" stroke="#16acff" stroke-width="3" /><rect x="492.8" y="80.0" width="40" height="40" rx="4" ry="4" stroke="#ffffff" stroke-width="0" fill="#16acff" fill-opacity="1" /><line x1="498.8" x2="526.8" y1="100.0" y2="100.0" stroke="#ffffff" stroke-width="4" /><line x1="512.8" x2="512.8" y1="86.0" y2="114.0" stroke="#ffffff" stroke-width="4" /><circle cx="572.8" cy="100.0" r="4" fill="#16acff" /><line x1="572.8" x2="572.8" y1="100.0" y2="160.0" stroke="#16acff" stroke-width="3" /><rect x="552.8" y="140.0" width="40" height="40" rx="4" ry="4" stroke="#ffffff" stroke-width="0" fill="#16acff" fill-opacity="1" /><line x1="558.8" x2="586.8" y1="160.0" y2="160.0" stroke="#ffffff" stroke-width="4" /><line x1="572.8" x2="572.8" y1="146.0" y2="174.0" stroke="#ffffff" stroke-width="4" /><circle cx="632.8" cy="160.0" r="4" fill="#16acff" /><line x1="632.8" x2="632.8" y1="160.0" y2="220.0" stroke="#16acff" stroke-width="3" /><rect x="612.8" y="200.0" width="40" height="40" rx="4" ry="4" stroke="#ffffff" stroke-width="0" fill="#16acff" fill-opacity="1" /><line x1="618.8" x2="646.8" y1="220.0" y2="220.0" stroke="#ffffff" stroke-width="4" /><line x1="632.8" x2="632.8" y1="206.0" y2="234.0" stroke="#ffffff" stroke-width="4" /><rect x="552.8" y="20.0" width="80.0" height="40" rx="4" ry="4" stroke="#ffffff" stroke-width="0" fill="#fac209" fill-opacity="1" /><text x="592.8" y="36.0" font-size="20px" dominant-baseline="middle" text-anchor="middle" font-family="Arial" font-weight="normal" fill="#ffffff" >RY </text><text x="592.8" y="52.0" font-size="14.0px" dominant-baseline="middle" text-anchor="middle" font-family="Arial" font-weight="normal" fill="#ffffff" >-1.5782 </text><rect x="612.8" y="80.0" width="80.0" height="40" rx="4" ry="4" stroke="#ffffff" stroke-width="0" fill="#fac209" fill-opacity="1" /><text x="652.8" y="96.0" font-size="20px" dominant-baseline="middle" text-anchor="middle" font-family="Arial" font-weight="normal" fill="#ffffff" >RY </text><text x="652.8" y="112.0" font-size="14.0px" dominant-baseline="middle" text-anchor="middle" font-family="Arial" font-weight="normal" fill="#ffffff" >1.6031 </text><rect x="712.8" y="80.0" width="80.0" height="40" rx="4" ry="4" stroke="#ffffff" stroke-width="0" fill="#c77532" fill-opacity="1" /><text x="752.8" y="96.0" font-size="20px" dominant-baseline="middle" text-anchor="middle" font-family="Arial" font-weight="normal" fill="#ffffff" >PFC </text><text x="752.8" y="112.0" font-size="14.0px" dominant-baseline="middle" text-anchor="middle" font-family="Arial" font-weight="normal" fill="#ffffff" >p=0.0195 </text><rect x="812.8" y="80.0" width="80.0" height="40" rx="4" ry="4" stroke="#ffffff" stroke-width="0" fill="#c77532" fill-opacity="1" /><text x="852.8" y="96.0" font-size="20px" dominant-baseline="middle" text-anchor="middle" font-family="Arial" font-weight="normal" fill="#ffffff" >DC </text><text x="852.8" y="112.0" font-size="14.0px" dominant-baseline="middle" text-anchor="middle" font-family="Arial" font-weight="normal" fill="#ffffff" >p=0.0668 </text><rect x="672.8" y="140.0" width="80.0" height="40" rx="4" ry="4" stroke="#ffffff" stroke-width="0" fill="#fac209" fill-opacity="1" /><text x="712.8" y="156.0" font-size="20px" dominant-baseline="middle" text-anchor="middle" font-family="Arial" font-weight="normal" fill="#ffffff" >RY </text><text x="712.8" y="172.0" font-size="14.0px" dominant-baseline="middle" text-anchor="middle" font-family="Arial" font-weight="normal" fill="#ffffff" >-0.0361 </text><rect x="672.8" y="200.0" width="80.0" height="40" rx="4" ry="4" stroke="#ffffff" stroke-width="0" fill="#fac209" fill-opacity="1" /><text x="712.8" y="216.0" font-size="20px" dominant-baseline="middle" text-anchor="middle" font-family="Arial" font-weight="normal" fill="#ffffff" >RY </text><text x="712.8" y="232.0" font-size="14.0px" dominant-baseline="middle" text-anchor="middle" font-family="Arial" font-weight="normal" fill="#ffffff" >1.0455 </text><circle cx="932.8" cy="40.0" r="4" fill="#16acff" /><line x1="932.8" x2="932.8" y1="40.0" y2="100.0" stroke="#16acff" stroke-width="3" /><rect x="912.8" y="80.0" width="40" height="40" rx="4" ry="4" stroke="#ffffff" stroke-width="0" fill="#16acff" fill-opacity="1" /><line x1="918.8" x2="946.8" y1="100.0" y2="100.0" stroke="#ffffff" stroke-width="4" /><line x1="932.8" x2="932.8" y1="86.0" y2="114.0" stroke="#ffffff" stroke-width="4" /><circle cx="992.8" cy="100.0" r="4" fill="#16acff" /><line x1="992.8" x2="992.8" y1="100.0" y2="160.0" stroke="#16acff" stroke-width="3" /><rect x="972.8" y="140.0" width="40" height="40" rx="4" ry="4" stroke="#ffffff" stroke-width="0" fill="#16acff" fill-opacity="1" /><line x1="978.8" x2="1006.8" y1="160.0" y2="160.0" stroke="#ffffff" stroke-width="4" /><line x1="992.8" x2="992.8" y1="146.0" y2="174.0" stroke="#ffffff" stroke-width="4" /><circle cx="1052.8" cy="160.0" r="4" fill="#16acff" /><line x1="1052.8" x2="1052.8" y1="160.0" y2="220.0" stroke="#16acff" stroke-width="3" /><rect x="1032.8" y="200.0" width="40" height="40" rx="4" ry="4" stroke="#ffffff" stroke-width="0" fill="#16acff" fill-opacity="1" /><line x1="1038.8" x2="1066.8" y1="220.0" y2="220.0" stroke="#ffffff" stroke-width="4" /><line x1="1052.8" x2="1052.8" y1="206.0" y2="234.0" stroke="#ffffff" stroke-width="4" /><rect x="972.8" y="20.0" width="80.0" height="40" rx="4" ry="4" stroke="#ffffff" stroke-width="0" fill="#fac209" fill-opacity="1" /><text x="1012.8" y="36.0" font-size="20px" dominant-baseline="middle" text-anchor="middle" font-family="Arial" font-weight="normal" fill="#ffffff" >RY </text><text x="1012.8" y="52.0" font-size="14.0px" dominant-baseline="middle" text-anchor="middle" font-family="Arial" font-weight="normal" fill="#ffffff" >-0.0045 </text><rect x="1072.8" y="20.0" width="80.0" height="40" rx="4" ry="4" stroke="#ffffff" stroke-width="0" fill="#c77532" fill-opacity="1" /><text x="1112.8" y="36.0" font-size="20px" dominant-baseline="middle" text-anchor="middle" font-family="Arial" font-weight="normal" fill="#ffffff" >PFC </text><text x="1112.8" y="52.0" font-size="14.0px" dominant-baseline="middle" text-anchor="middle" font-family="Arial" font-weight="normal" fill="#ffffff" >p=0.1056 </text><rect x="1032.8" y="80.0" width="80.0" height="40" rx="4" ry="4" stroke="#ffffff" stroke-width="0" fill="#fac209" fill-opacity="1" /><text x="1072.8" y="96.0" font-size="20px" dominant-baseline="middle" text-anchor="middle" font-family="Arial" font-weight="normal" fill="#ffffff" >RY </text><text x="1072.8" y="112.0" font-size="14.0px" dominant-baseline="middle" text-anchor="middle" font-family="Arial" font-weight="normal" fill="#ffffff" >0.0178 </text><rect x="1092.8" y="140.0" width="80.0" height="40" rx="4" ry="4" stroke="#ffffff" stroke-width="0" fill="#fac209" fill-opacity="1" /><text x="1132.8" y="156.0" font-size="20px" dominant-baseline="middle" text-anchor="middle" font-family="Arial" font-weight="normal" fill="#ffffff" >RY </text><text x="1132.8" y="172.0" font-size="14.0px" dominant-baseline="middle" text-anchor="middle" font-family="Arial" font-weight="normal" fill="#ffffff" >-0.1206 </text><rect x="1092.8" y="200.0" width="80.0" height="40" rx="4" ry="4" stroke="#ffffff" stroke-width="0" fill="#fac209" fill-opacity="1" /><text x="1132.8" y="216.0" font-size="20px" dominant-baseline="middle" text-anchor="middle" font-family="Arial" font-weight="normal" fill="#ffffff" >RY </text><text x="1132.8" y="232.0" font-size="14.0px" dominant-baseline="middle" text-anchor="middle" font-family="Arial" font-weight="normal" fill="#ffffff" >1.1762 </text><rect x="1172.8" y="20.0" width="80.0" height="40" rx="4" ry="4" stroke="#ffffff" stroke-width="0" fill="#c77532" fill-opacity="1" /><text x="1212.8" y="36.0" font-size="20px" dominant-baseline="middle" text-anchor="middle" font-family="Arial" font-weight="normal" fill="#ffffff" >DC </text><text x="1212.8" y="52.0" font-size="14.0px" dominant-baseline="middle" text-anchor="middle" font-family="Arial" font-weight="normal" fill="#ffffff" >p=1/1000 </text><rect x="1192.8" y="140.0" width="80.0" height="40" rx="4" ry="4" stroke="#ffffff" stroke-width="0" fill="#c77532" fill-opacity="1" /><text x="1232.8" y="156.0" font-size="20px" dominant-baseline="middle" text-anchor="middle" font-family="Arial" font-weight="normal" fill="#ffffff" >DC </text><text x="1232.8" y="172.0" font-size="14.0px" dominant-baseline="middle" text-anchor="middle" font-family="Arial" font-weight="normal" fill="#ffffff" >p=1/1000 </text><rect x="1292.8" y="140.0" width="40" height="40" rx="4" ry="4" stroke="#ffffff" stroke-width="0" fill="#ff7272" fill-opacity="1" /><circle cx="1312.8" cy="170.4" r="1.6" fill="#ffffff" /><path d="M 1300.0 170.4 A 12.8 12.8 0 0 1 1325.6 170.4" stroke="#ffffff" stroke-width="2.4000000000000004" fill-opacity="0" /><path d="M 1316.901848317486 153.93539030917347 L 1325.2156921938165 149.13539030917346 L 1325.2156921938165 158.73539030917345 L 1321.8901546432842 156.81539030917347 L 1314.0470765814496 170.4 L 1312.3843078061834 169.44 L 1320.227385868018 155.85539030917346 Z" fill="#ffffff" /><rect x="1192.8" y="200.0" width="40" height="40" rx="4" ry="4" stroke="#ffffff" stroke-width="0" fill="#ff7272" fill-opacity="1" /><circle cx="1212.8" cy="230.4" r="1.6" fill="#ffffff" /><path d="M 1200.0 230.4 A 12.8 12.8 0 0 1 1225.6 230.4" stroke="#ffffff" stroke-width="2.4000000000000004" fill-opacity="0" /><path d="M 1216.901848317486 213.93539030917347 L 1225.2156921938165 209.13539030917346 L 1225.2156921938165 218.73539030917345 L 1221.8901546432842 216.81539030917347 L 1214.0470765814496 230.4 L 1212.3843078061834 229.44 L 1220.227385868018 215.85539030917346 Z" fill="#ffffff" /></svg>