<svg xmlns="http://www.w3.org/2000/svg" width="1116.8" height="260.0" xmlns:xlink="http://www.w3.org/1999/xlink"><rect x="0" y="0.0" width="1116.8" height="260.0" fill="#ffffff" /><text x="20.0" y="40.0" font-size="16px" dominant-baseline="middle" text-anchor="start" font-family="Arial" font-weight="normal" fill="#252b3a" >q0: </text><text x="20.0" y="100.0" font-size="16px" dominant-baseline="middle" text-anchor="start" font-family="Arial" font-weight="normal" fill="#252b3a" >q1: </text><text x="20.0" y="160.0" font-size="16px" dominant-baseline="middle" text-anchor="start" font-family="Arial" font-weight="normal" fill="#252b3a" >q2: </text><text x="20.0" y="220.0" font-size="16px" dominant-baseline="middle" text-anchor="start" font-family="Arial" font-weight="normal" fill="#252b3a" >q3: </text><line x1="48.8" x2="1096.8" y1="40.0" y2="40.0" stroke="#adb0b8" stroke-width="1" /><line x1="48.8" x2="1096.8" y1="100.0" y2="100.0" stroke="#adb0b8" stroke-width="1" /><line x1="48.8" x2="1096.8" y1="160.0" y2="160.0" stroke="#adb0b8" stroke-width="1" /><line x1="48.8" x2="1096.8" y1="220.0" y2="220.0" stroke="#adb0b8" stroke-width="1" /><rect x="72.8" y="20.0" width="80.0" height="40" rx="4" ry="4" stroke="#ffffff" stroke-width="0" fill="#fac209" fill-opacity="1" /><text x="112.8" y="36.0" font-size="20px" dominant-baseline="middle" text-anchor="middle" font-family="Arial" font-weight="normal" fill="#ffffff" >RY </text><text x="112.8" y="52.0" font-size="14.0px" dominant-baseline="middle" text-anchor="middle" font-family="Arial" font-weight="normal" fill="#ffffff" >0.0653 </text><rect x="72.8" y="80.0" width="80.0" height="40" rx="4" ry="4" stroke="#ffffff" stroke-width="0" fill="#fac209" fill-opacity="1" /><text x="112.8" y="96.0" font-size="20px" dominant-baseline="middle" text-anchor="middle" font-family="Arial" font-weight="normal" fill="#ffffff" >RY </text><text x="112.8" y="112.0" font-size="14.0px" dominant-baseline="middle" text-anchor="middle" font-family="Arial" font-weight="normal" fill="#ffffff" >0.018 </text><rect x="72.8" y="140.0" width="80.0" height="40" rx="4" ry="4" stroke="#ffffff" stroke-width="0" fill="#fac209" fill-opacity="1" /><text x="112.8" y="156.0" font-size="20px" dominant-baseline="middle" text-anchor="middle" font-family="Arial" font-weight="normal" fill="#ffffff" >RY </text><text x="112.8" y="172.0" font-size="14.0px" dominant-baseline="middle" text-anchor="middle" font-family="Arial" font-weight="normal" fill="#ffffff" >-0.6304 </text><rect x="172.8" y="140.0" width="80.0" height="40" rx="4" ry="4" stroke="#ffffff" stroke-width="0" fill="#c77532" fill-opacity="1" /><text x="212.8" y="156.0" font-size="20px" dominant-baseline="middle" text-anchor="middle" font-family="Arial" font-weight="normal" fill="#ffffff" >PFC </text><text x="212.8" y="172.0" font-size="14.0px" dominant-baseline="middle" text-anchor="middle" font-family="Arial" font-weight="normal" fill="#ffffff" >p=0.1281 </text><rect x="72.8" y="200.0" width="80.0" height="40" rx="4" ry="4" stroke="#ffffff" stroke-width="0" fill="#fac209" fill-opacity="1" /><text x="112.8" y="216.0" font-size="20px" dominant-baseline="middle" text-anchor="middle" font-family="Arial" font-weight="normal" fill="#ffffff" >RY </text><text x="112.8" y="232.0" font-size="14.0px" dominant-baseline="middle" text-anchor="middle" font-family="Arial" font-weight="normal" fill="#ffffff" >-0.1156 </text><circle cx="192.8" cy="40.0" r="4" fill="#16acff" /><line x1="192.8" x2="192.8" y1="40.0" y2="100.0" stroke="#16acff" stroke-width="3" /><rect x="172.8" y="80.0" width="40" height="40" rx="4" ry="4" stroke="#ffffff" stroke-width="0" fill="#16acff" fill-opacity="1" /><line x1="178.8" x2="206.8" y1="100.0" y2="100.0" stroke="#ffffff" stroke-width="4" /><line x1="192.8" x2="192.8" y1="86.0" y2="114.0" stroke="#ffffff" stroke-width="4" /><rect x="232.8" y="20.0" width="80.0" height="40" rx="4" ry="4" stroke="#ffffff" stroke-width="0" fill="#c77532" fill-opacity="1" /><text x="272.8" y="36.0" font-size="20px" dominant-baseline="middle" text-anchor="middle" font-family="Arial" font-weight="normal" fill="#ffffff" >BFC </text><text x="272.8" y="52.0" font-size="14.0px" dominant-baseline="middle" text-anchor="middle" font-family="Arial" font-weight="normal" fill="#ffffff" >p=0.0995 </text><circle cx="292.8" cy="100.0" r="4" fill="#16acff" /><line x1="292.8" x2="292.8" y1="100.0" y2="160.0" stroke="#16acff" stroke-width="3" /><rect x="272.8" y="140.0" width="40" height="40" rx="4" ry="4" stroke="#ffffff" stroke-width="0" fill="#16acff" fill-opacity="1" /><line x1="278.8" x2="306.8" y1="160.0" y2="160.0" stroke="#ffffff" stroke-width="4" /><line x1="292.8" x2="292.8" y1="146.0" y2="174.0" stroke="#ffffff" stroke-width="4" /><circle cx="352.8" cy="160.0" r="4" fill="#16acff" /><line x1="352.8" x2="352.8" y1="160.0" y2="220.0" stroke="#16acff" stroke-width="3" /><rect x="332.8" y="200.0" width="40" height="40" rx="4" ry="4" stroke="#ffffff" stroke-width="0" fill="#16acff" fill-opacity="1" /><line x1="338.8" x2="366.8" y1="220.0" y2="220.0" stroke="#ffffff" stroke-width="4" /><line x1="352.8" x2="352.8" y1="206.0" y2="234.0" stroke="#ffffff" stroke-width="4" /><rect x="392.8" y="200.0" width="80.0" height="40" rx="4" ry="4" stroke="#ffffff" stroke-width="0" fill="#c77532" fill-opacity="1" /><text x="432.8" y="216.0" font-size="20px" dominant-baseline="middle" text-anchor="middle" font-family="Arial" font-weight="normal" fill="#ffffff" >BFC </text><text x="432.8" y="232.0" font-size="14.0px" dominant-baseline="middle" text-anchor="middle" font-family="Arial" font-weight="normal" fill="#ffffff" >p=0.0995 </text><rect x="332.8" y="20.0" width="80.0" height="40" rx="4" ry="4" stroke="#ffffff" stroke-width="0" fill="#fac209" fill-opacity="1" /><text x="372.8" y="36.0" font-size="20px" dominant-baseline="middle" text-anchor="middle" font-family="Arial" font-weight="normal" fill="#ffffff" >RY </text><text x="372.8" y="52.0" font-size="14.0px" dominant-baseline="middle" text-anchor="middle" font-family="Arial" font-weight="normal" fill="#ffffff" >-1.5887 </text><rect x="332.8" y="80.0" width="80.0" height="40" rx="4" ry="4" stroke="#ffffff" stroke-width="0" fill="#fac209" fill-opacity="1" /><text x="372.8" y="96.0" font-size="20px" dominant-baseline="middle" text-anchor="middle" font-family="Arial" font-weight="normal" fill="#ffffff" >RY </text><text x="372.8" y="112.0" font-size="14.0px" dominant-baseline="middle" text-anchor="middle" font-family="Arial" font-weight="normal" fill="#ffffff" >-0.0959 </text><rect x="392.8" y="140.0" width="80.0" height="40" rx="4" ry="4" stroke="#ffffff" stroke-width="0" fill="#fac209" fill-opacity="1" /><text x="432.8" y="156.0" font-size="20px" dominant-baseline="middle" text-anchor="middle" font-family="Arial" font-weight="normal" fill="#ffffff" >RY </text><text x="432.8" y="172.0" font-size="14.0px" dominant-baseline="middle" text-anchor="middle" font-family="Arial" font-weight="normal" fill="#ffffff" >-1.5835 </text><rect x="492.8" y="200.0" width="80.0" height="40" rx="4" ry="4" stroke="#ffffff" stroke-width="0" fill="#fac209" fill-opacity="1" /><text x="532.8" y="216.0" font-size="20px" dominant-baseline="middle" text-anchor="middle" font-family="Arial" font-weight="normal" fill="#ffffff" >RY </text><text x="532.8" y="232.0" font-size="14.0px" dominant-baseline="middle" text-anchor="middle" font-family="Arial" font-weight="normal" fill="#ffffff" >0.1822 </text><circle cx="452.8" cy="40.0" r="4" fill="#16acff" /><line x1="452.8" x2="452.8" y1="40.0" y2="100.0" stroke="#16acff" stroke-width="3" /><rect x="432.8" y="80.0" width="40" height="40" rx="4" ry="4" stroke="#ffffff" stroke-width="0" fill="#16acff" fill-opacity="1" /><line x1="438.8" x2="466.8" y1="100.0" y2="100.0" stroke="#ffffff" stroke-width="4" /><line x1="452.8" x2="452.8" y1="86.0" y2="114.0" stroke="#ffffff" stroke-width="4" /><circle cx="512.8" cy="100.0" r="4" fill="#16acff" /><line x1="512.8" x2="512.8" y1="100.0" y2="160.0" stroke="#16acff" stroke-width="3" /><rect x="492.8" y="140.0" width="40" height="40" rx="4" ry="4" stroke="#ffffff" stroke-width="0" fill="#16acff" fill-opacity="1" /><line x1="498.8" x2="526.8" y1="160.0" y2="160.0" stroke="#ffffff" stroke-width="4" /><line x1="512.8" x2="512.8" y1="146.0" y2="174.0" stroke="#ffffff" stroke-width="4" /><circle cx="612.8" cy="160.0" r="4" fill="#16acff" /><line x1="612.8" x2="612.8" y1="160.0" y2="220.0" stroke="#16acff" stroke-width="3" /><rect x="592.8" y="200.0" width="40" height="40" rx="4" ry="4" stroke="#ffffff" stroke-width="0" fill="#16acff" fill-opacity="1" /><line x1="598.8" x2="626.8" y1="220.0" y2="220.0" stroke="#ffffff" stroke-width="4" /><line x1="612.8" x2="612.8" y1="206.0" y2="234.0" stroke="#ffffff" stroke-width="4" /><rect x="492.8" y="20.0" width="80.0" height="40" rx="4" ry="4" stroke="#ffffff" stroke-width="0" fill="#fac209" fill-opacity="1" /><text x="532.8" y="36.0" font-size="20px" dominant-baseline="middle" text-anchor="middle" font-family="Arial" font-weight="normal" fill="#ffffff" >RY </text><text x="532.8" y="52.0" font-size="14.0px" dominant-baseline="middle" text-anchor="middle" font-family="Arial" font-weight="normal" fill="#ffffff" >-1.5782 </text><rect x="552.8" y="80.0" width="80.0" height="40" rx="4" ry="4" stroke="#ffffff" stroke-width="0" fill="#fac209" fill-opacity="1" /><text x="592.8" y="96.0" font-size="20px" dominant-baseline="middle" text-anchor="middle" font-family="Arial" font-weight="normal" fill="#ffffff" >RY </text><text x="592.8" y="112.0" font-size="14.0px" dominant-baseline="middle" text-anchor="middle" font-family="Arial" font-weight="normal" fill="#ffffff" >1.6031 </text><rect x="652.8" y="140.0" width="80.0" height="40" rx="4" ry="4" stroke="#ffffff" stroke-width="0" fill="#fac209" fill-opacity="1" /><text x="692.8" y="156.0" font-size="20px" dominant-baseline="middle" text-anchor="middle" font-family="Arial" font-weight="normal" fill="#ffffff" >RY </text><text x="692.8" y="172.0" font-size="14.0px" dominant-baseline="middle" text-anchor="middle" font-family="Arial" font-weight="normal" fill="#ffffff" >-0.0361 </text><rect x="652.8" y="200.0" width="80.0" height="40" rx="4" ry="4" stroke="#ffffff" stroke-width="0" fill="#fac209" fill-opacity="1" /><text x="692.8" y="216.0" font-size="20px" dominant-baseline="middle" text-anchor="middle" font-family="Arial" font-weight="normal" fill="#ffffff" >RY </text><text x="692.8" y="232.0" font-size="14.0px" dominant-baseline="middle" text-anchor="middle" font-family="Arial" font-weight="normal" fill="#ffffff" >1.0455 </text><circle cx="672.8" cy="40.0" r="4" fill="#16acff" /><line x1="672.8" x2="672.8" y1="40.0" y2="100.0" stroke="#16acff" stroke-width="3" /><rect x="652.8" y="80.0" width="40" height="40" rx="4" ry="4" stroke="#ffffff" stroke-width="0" fill="#16acff" fill-opacity="1" /><line x1="658.8" x2="686.8" y1="100.0" y2="100.0" stroke="#ffffff" stroke-width="4" /><line x1="672.8" x2="672.8" y1="86.0" y2="114.0" stroke="#ffffff" stroke-width="4" /><rect x="712.8" y="80.0" width="80.0" height="40" rx="4" ry="4" stroke="#ffffff" stroke-width="0" fill="#c77532" fill-opacity="1" /><text x="752.8" y="96.0" font-size="20px" dominant-baseline="middle" text-anchor="middle" font-family="Arial" font-weight="normal" fill="#ffffff" >BFC </text><text x="752.8" y="112.0" font-size="14.0px" dominant-baseline="middle" text-anchor="middle" font-family="Arial" font-weight="normal" fill="#ffffff" >p=0.0995 </text><circle cx="832.8" cy="100.0" r="4" fill="#16acff" /><line x1="832.8" x2="832.8" y1="100.0" y2="160.0" stroke="#16acff" stroke-width="3" /><rect x="812.8" y="140.0" width="40" height="40" rx="4" ry="4" stroke="#ffffff" stroke-width="0" fill="#16acff" fill-opacity="1" /><line x1="818.8" x2="846.8" y1="160.0" y2="160.0" stroke="#ffffff" stroke-width="4" /><line x1="832.8" x2="832.8" y1="146.0" y2="174.0" stroke="#ffffff" stroke-width="4" /><circle cx="892.8" cy="160.0" r="4" fill="#16acff" /><line x1="892.8" x2="892.8" y1="160.0" y2="220.0" stroke="#16acff" stroke-width="3" /><rect x="872.8" y="200.0" width="40" height="40" rx="4" ry="4" stroke="#ffffff" stroke-width="0" fill="#16acff" fill-opacity="1" /><line x1="878.8" x2="906.8" y1="220.0" y2="220.0" stroke="#ffffff" stroke-width="4" /><line x1="892.8" x2="892.8" y1="206.0" y2="234.0" stroke="#ffffff" stroke-width="4" /><rect x="712.8" y="20.0" width="80.0" height="40" rx="4" ry="4" stroke="#ffffff" stroke-width="0" fill="#fac209" fill-opacity="1" /><text x="752.8" y="36.0" font-size="20px" dominant-baseline="middle" text-anchor="middle" font-family="Arial" font-weight="normal" fill="#ffffff" >RY </text><text x="752.8" y="52.0" font-size="14.0px" dominant-baseline="middle" text-anchor="middle" font-family="Arial" font-weight="normal" fill="#ffffff" >-0.0045 </text><rect x="872.8" y="80.0" width="80.0" height="40" rx="4" ry="4" stroke="#ffffff" stroke-width="0" fill="#fac209" fill-opacity="1" /><text x="912.8" y="96.0" font-size="20px" dominant-baseline="middle" text-anchor="middle" font-family="Arial" font-weight="normal" fill="#ffffff" >RY </text><text x="912.8" y="112.0" font-size="14.0px" dominant-baseline="middle" text-anchor="middle" font-family="Arial" font-weight="normal" fill="#ffffff" >0.0178 </text><rect x="932.8" y="140.0" width="80.0" height="40" rx="4" ry="4" stroke="#ffffff" stroke-width="0" fill="#fac209" fill-opacity="1" /><text x="972.8" y="156.0" font-size="20px" dominant-baseline="middle" text-anchor="middle" font-family="Arial" font-weight="normal" fill="#ffffff" >RY </text><text x="972.8" y="172.0" font-size="14.0px" dominant-baseline="middle" text-anchor="middle" font-family="Arial" font-weight="normal" fill="#ffffff" >-0.1206 </text><rect x="932.8" y="200.0" width="80.0" height="40" rx="4" ry="4" stroke="#ffffff" stroke-width="0" fill="#fac209" fill-opacity="1" /><text x="972.8" y="216.0" font-size="20px" dominant-baseline="middle" text-anchor="middle" font-family="Arial" font-weight="normal" fill="#ffffff" >RY </text><text x="972.8" y="232.0" font-size="14.0px" dominant-baseline="middle" text-anchor="middle" font-family="Arial" font-weight="normal" fill="#ffffff" >1.1762 </text><rect x="1032.8" y="140.0" width="40" height="40" rx="4" ry="4" stroke="#ffffff" stroke-width="0" fill="#ff7272" fill-opacity="1" /><circle cx="1052.8" cy="170.4" r="1.6" fill="#ffffff" /><path d="M 1040.0 170.4 A 12.8 12.8 0 0 1 1065.6 170.4" stroke="#ffffff" stroke-width="2.4000000000000004" fill-opacity="0" /><path d="M 1056.901848317486 153.93539030917347 L 1065.2156921938165 149.13539030917346 L 1065.2156921938165 158.73539030917345 L 1061.8901546432844 156.81539030917347 L 1054.0470765814496 170.4 L 1052.3843078061834 169.44 L 1060.2273858680182 155.85539030917346 Z" fill="#ffffff" /><rect x="1032.8" y="200.0" width="40" height="40" rx="4" ry="4" stroke="#ffffff" stroke-width="0" fill="#ff7272" fill-opacity="1" /><circle cx="1052.8" cy="230.4" r="1.6" fill="#ffffff" /><path d="M 1040.0 230.4 A 12.8 12.8 0 0 1 1065.6 230.4" stroke="#ffffff" stroke-width="2.4000000000000004" fill-opacity="0" /><path d="M 1056.901848317486 213.93539030917347 L 1065.2156921938165 209.13539030917346 L 1065.2156921938165 218.73539030917345 L 1061.8901546432844 216.81539030917347 L 1054.0470765814496 230.4 L 1052.3843078061834 229.44 L 1060.2273858680182 215.85539030917346 Z" fill="#ffffff" /></svg>