<svg xmlns="http://www.w3.org/2000/svg" width="3172.8" height="260.0" xmlns:xlink="http://www.w3.org/1999/xlink"><rect x="0" y="0.0" width="3172.8" height="260.0" fill="#ffffff" /><text x="20.0" y="40.0" font-size="16px" dominant-baseline="middle" text-anchor="start" font-family="Arial" font-weight="normal" fill="#252b3a" >q0: </text><text x="20.0" y="100.0" font-size="16px" dominant-baseline="middle" text-anchor="start" font-family="Arial" font-weight="normal" fill="#252b3a" >q1: </text><text x="20.0" y="160.0" font-size="16px" dominant-baseline="middle" text-anchor="start" font-family="Arial" font-weight="normal" fill="#252b3a" >q2: </text><text x="20.0" y="220.0" font-size="16px" dominant-baseline="middle" text-anchor="start" font-family="Arial" font-weight="normal" fill="#252b3a" >q3: </text><line x1="48.8" x2="3152.8" y1="40.0" y2="40.0" stroke="#adb0b8" stroke-width="1" /><line x1="48.8" x2="3152.8" y1="100.0" y2="100.0" stroke="#adb0b8" stroke-width="1" /><line x1="48.8" x2="3152.8" y1="160.0" y2="160.0" stroke="#adb0b8" stroke-width="1" /><line x1="48.8" x2="3152.8" y1="220.0" y2="220.0" stroke="#adb0b8" stroke-width="1" /><rect x="72.8" y="20.0" width="80.0" height="40" rx="4" ry="4" stroke="#ffffff" stroke-width="0" fill="#fac209" fill-opacity="1" /><text x="112.8" y="36.0" font-size="20px" dominant-baseline="middle" text-anchor="middle" font-family="Arial" font-weight="normal" fill="#ffffff" >RX </text><text x="112.8" y="52.0" font-size="14.0px" dominant-baseline="middle" text-anchor="middle" font-family="Arial" font-weight="normal" fill="#ffffff" >0.2311 </text><rect x="172.8" y="20.0" width="80.0" height="40" rx="4" ry="4" stroke="#ffffff" stroke-width="0" fill="#fac209" fill-opacity="1" /><text x="212.8" y="36.0" font-size="20px" dominant-baseline="middle" text-anchor="middle" font-family="Arial" font-weight="normal" fill="#ffffff" >RY </text><text x="212.8" y="52.0" font-size="14.0px" dominant-baseline="middle" text-anchor="middle" font-family="Arial" font-weight="normal" fill="#ffffff" >-0.333 </text><rect x="272.8" y="20.0" width="80.0" height="40" rx="4" ry="4" stroke="#ffffff" stroke-width="0" fill="#fac209" fill-opacity="1" /><text x="312.8" y="36.0" font-size="20px" dominant-baseline="middle" text-anchor="middle" font-family="Arial" font-weight="normal" fill="#ffffff" >RZ </text><text x="312.8" y="52.0" font-size="14.0px" dominant-baseline="middle" text-anchor="middle" font-family="Arial" font-weight="normal" fill="#ffffff" >-0.7749 </text><rect x="72.8" y="80.0" width="80.0" height="40" rx="4" ry="4" stroke="#ffffff" stroke-width="0" fill="#fac209" fill-opacity="1" /><text x="112.8" y="96.0" font-size="20px" dominant-baseline="middle" text-anchor="middle" font-family="Arial" font-weight="normal" fill="#ffffff" >RX </text><text x="112.8" y="112.0" font-size="14.0px" dominant-baseline="middle" text-anchor="middle" font-family="Arial" font-weight="normal" fill="#ffffff" >-0.0144 </text><rect x="172.8" y="80.0" width="80.0" height="40" rx="4" ry="4" stroke="#ffffff" stroke-width="0" fill="#fac209" fill-opacity="1" /><text x="212.8" y="96.0" font-size="20px" dominant-baseline="middle" text-anchor="middle" font-family="Arial" font-weight="normal" fill="#ffffff" >RY </text><text x="212.8" y="112.0" font-size="14.0px" dominant-baseline="middle" text-anchor="middle" font-family="Arial" font-weight="normal" fill="#ffffff" >-0.1622 </text><rect x="272.8" y="80.0" width="80.0" height="40" rx="4" ry="4" stroke="#ffffff" stroke-width="0" fill="#fac209" fill-opacity="1" /><text x="312.8" y="96.0" font-size="20px" dominant-baseline="middle" text-anchor="middle" font-family="Arial" font-weight="normal" fill="#ffffff" >RZ </text><text x="312.8" y="112.0" font-size="14.0px" dominant-baseline="middle" text-anchor="middle" font-family="Arial" font-weight="normal" fill="#ffffff" >-0.1178 </text><rect x="372.8" y="20.0" width="80.0" height="100" rx="4" ry="4" stroke="#ffffff" stroke-width="0" fill="#fac209" fill-opacity="1" /><text x="412.8" y="66.0" font-size="20px" dominant-baseline="middle" text-anchor="middle" font-family="Arial" font-weight="normal" fill="#ffffff" >Rxx </text><text x="412.8" y="82.0" font-size="14.0px" dominant-baseline="middle" text-anchor="middle" font-family="Arial" font-weight="normal" fill="#ffffff" >-1.1509 </text><rect x="472.8" y="80.0" width="40.0" height="40" rx="4" ry="4" stroke="#ffffff" stroke-width="0" fill="#fac209" fill-opacity="1" /><text x="492.8" y="96.0" font-size="20px" dominant-baseline="middle" text-anchor="middle" font-family="Arial" font-weight="normal" fill="#ffffff" >RX </text><text x="492.8" y="112.0" font-size="14.0px" dominant-baseline="middle" text-anchor="middle" font-family="Arial" font-weight="normal" fill="#ffffff" >π/2 </text><rect x="472.8" y="20.0" width="40.0" height="40" rx="4" ry="4" stroke="#ffffff" stroke-width="0" fill="#fac209" fill-opacity="1" /><text x="492.8" y="36.0" font-size="20px" dominant-baseline="middle" text-anchor="middle" font-family="Arial" font-weight="normal" fill="#ffffff" >RX </text><text x="492.8" y="52.0" font-size="14.0px" dominant-baseline="middle" text-anchor="middle" font-family="Arial" font-weight="normal" fill="#ffffff" >π/2 </text><circle cx="552.8" cy="40.0" r="4" fill="#16acff" /><line x1="552.8" x2="552.8" y1="40.0" y2="100.0" stroke="#16acff" stroke-width="3" /><rect x="532.8" y="80.0" width="40" height="40" rx="4" ry="4" stroke="#ffffff" stroke-width="0" fill="#16acff" fill-opacity="1" /><line x1="538.8" x2="566.8" y1="100.0" y2="100.0" stroke="#ffffff" stroke-width="4" /><line x1="552.8" x2="552.8" y1="86.0" y2="114.0" stroke="#ffffff" stroke-width="4" /><rect x="592.8" y="80.0" width="80.0" height="40" rx="4" ry="4" stroke="#ffffff" stroke-width="0" fill="#fac209" fill-opacity="1" /><text x="632.8" y="96.0" font-size="20px" dominant-baseline="middle" text-anchor="middle" font-family="Arial" font-weight="normal" fill="#ffffff" >RZ </text><text x="632.8" y="112.0" font-size="14.0px" dominant-baseline="middle" text-anchor="middle" font-family="Arial" font-weight="normal" fill="#ffffff" >-0.5494 </text><circle cx="712.8" cy="40.0" r="4" fill="#16acff" /><line x1="712.8" x2="712.8" y1="40.0" y2="100.0" stroke="#16acff" stroke-width="3" /><rect x="692.8" y="80.0" width="40" height="40" rx="4" ry="4" stroke="#ffffff" stroke-width="0" fill="#16acff" fill-opacity="1" /><line x1="698.8" x2="726.8" y1="100.0" y2="100.0" stroke="#ffffff" stroke-width="4" /><line x1="712.8" x2="712.8" y1="86.0" y2="114.0" stroke="#ffffff" stroke-width="4" /><rect x="752.8" y="80.0" width="40.0" height="40" rx="4" ry="4" stroke="#ffffff" stroke-width="0" fill="#fac209" fill-opacity="1" /><text x="772.8" y="96.0" font-size="20px" dominant-baseline="middle" text-anchor="middle" font-family="Arial" font-weight="normal" fill="#ffffff" >RX </text><text x="772.8" y="112.0" font-size="14.0px" dominant-baseline="middle" text-anchor="middle" font-family="Arial" font-weight="normal" fill="#ffffff" >-π/2 </text><rect x="752.8" y="20.0" width="40.0" height="40" rx="4" ry="4" stroke="#ffffff" stroke-width="0" fill="#fac209" fill-opacity="1" /><text x="772.8" y="36.0" font-size="20px" dominant-baseline="middle" text-anchor="middle" font-family="Arial" font-weight="normal" fill="#ffffff" >RX </text><text x="772.8" y="52.0" font-size="14.0px" dominant-baseline="middle" text-anchor="middle" font-family="Arial" font-weight="normal" fill="#ffffff" >-π/2 </text><rect x="812.8" y="20.0" width="80.0" height="100" rx="4" ry="4" stroke="#ffffff" stroke-width="0" fill="#fac209" fill-opacity="1" /><text x="852.8" y="66.0" font-size="20px" dominant-baseline="middle" text-anchor="middle" font-family="Arial" font-weight="normal" fill="#ffffff" >Rzz </text><text x="852.8" y="82.0" font-size="14.0px" dominant-baseline="middle" text-anchor="middle" font-family="Arial" font-weight="normal" fill="#ffffff" >-0.5589 </text><rect x="912.8" y="20.0" width="80.0" height="40" rx="4" ry="4" stroke="#ffffff" stroke-width="0" fill="#fac209" fill-opacity="1" /><text x="952.8" y="36.0" font-size="20px" dominant-baseline="middle" text-anchor="middle" font-family="Arial" font-weight="normal" fill="#ffffff" >RX </text><text x="952.8" y="52.0" font-size="14.0px" dominant-baseline="middle" text-anchor="middle" font-family="Arial" font-weight="normal" fill="#ffffff" >0.445 </text><rect x="1012.8" y="20.0" width="80.0" height="40" rx="4" ry="4" stroke="#ffffff" stroke-width="0" fill="#fac209" fill-opacity="1" /><text x="1052.8" y="36.0" font-size="20px" dominant-baseline="middle" text-anchor="middle" font-family="Arial" font-weight="normal" fill="#ffffff" >RY </text><text x="1052.8" y="52.0" font-size="14.0px" dominant-baseline="middle" text-anchor="middle" font-family="Arial" font-weight="normal" fill="#ffffff" >-0.2395 </text><rect x="1112.8" y="20.0" width="80.0" height="40" rx="4" ry="4" stroke="#ffffff" stroke-width="0" fill="#fac209" fill-opacity="1" /><text x="1152.8" y="36.0" font-size="20px" dominant-baseline="middle" text-anchor="middle" font-family="Arial" font-weight="normal" fill="#ffffff" >RZ </text><text x="1152.8" y="52.0" font-size="14.0px" dominant-baseline="middle" text-anchor="middle" font-family="Arial" font-weight="normal" fill="#ffffff" >0.0057 </text><rect x="912.8" y="80.0" width="80.0" height="40" rx="4" ry="4" stroke="#ffffff" stroke-width="0" fill="#fac209" fill-opacity="1" /><text x="952.8" y="96.0" font-size="20px" dominant-baseline="middle" text-anchor="middle" font-family="Arial" font-weight="normal" fill="#ffffff" >RX </text><text x="952.8" y="112.0" font-size="14.0px" dominant-baseline="middle" text-anchor="middle" font-family="Arial" font-weight="normal" fill="#ffffff" >0.0057 </text><rect x="1012.8" y="80.0" width="80.0" height="40" rx="4" ry="4" stroke="#ffffff" stroke-width="0" fill="#fac209" fill-opacity="1" /><text x="1052.8" y="96.0" font-size="20px" dominant-baseline="middle" text-anchor="middle" font-family="Arial" font-weight="normal" fill="#ffffff" >RY </text><text x="1052.8" y="112.0" font-size="14.0px" dominant-baseline="middle" text-anchor="middle" font-family="Arial" font-weight="normal" fill="#ffffff" >0.2854 </text><rect x="1112.8" y="80.0" width="80.0" height="40" rx="4" ry="4" stroke="#ffffff" stroke-width="0" fill="#fac209" fill-opacity="1" /><text x="1152.8" y="96.0" font-size="20px" dominant-baseline="middle" text-anchor="middle" font-family="Arial" font-weight="normal" fill="#ffffff" >RZ </text><text x="1152.8" y="112.0" font-size="14.0px" dominant-baseline="middle" text-anchor="middle" font-family="Arial" font-weight="normal" fill="#ffffff" >0.4968 </text><circle cx="1232.8" cy="40.0" r="4" fill="#16acff" /><line x1="1232.8" x2="1232.8" y1="40.0" y2="100.0" stroke="#16acff" stroke-width="3" /><rect x="1212.8" y="80.0" width="40" height="40" rx="4" ry="4" stroke="#ffffff" stroke-width="0" fill="#16acff" fill-opacity="1" /><line x1="1218.8" x2="1246.8" y1="100.0" y2="100.0" stroke="#ffffff" stroke-width="4" /><line x1="1232.8" x2="1232.8" y1="86.0" y2="114.0" stroke="#ffffff" stroke-width="4" /><rect x="72.8" y="140.0" width="80.0" height="40" rx="4" ry="4" stroke="#ffffff" stroke-width="0" fill="#fac209" fill-opacity="1" /><text x="112.8" y="156.0" font-size="20px" dominant-baseline="middle" text-anchor="middle" font-family="Arial" font-weight="normal" fill="#ffffff" >RX </text><text x="112.8" y="172.0" font-size="14.0px" dominant-baseline="middle" text-anchor="middle" font-family="Arial" font-weight="normal" fill="#ffffff" >0.253 </text><rect x="172.8" y="140.0" width="80.0" height="40" rx="4" ry="4" stroke="#ffffff" stroke-width="0" fill="#fac209" fill-opacity="1" /><text x="212.8" y="156.0" font-size="20px" dominant-baseline="middle" text-anchor="middle" font-family="Arial" font-weight="normal" fill="#ffffff" >RY </text><text x="212.8" y="172.0" font-size="14.0px" dominant-baseline="middle" text-anchor="middle" font-family="Arial" font-weight="normal" fill="#ffffff" >-0.1177 </text><rect x="272.8" y="140.0" width="80.0" height="40" rx="4" ry="4" stroke="#ffffff" stroke-width="0" fill="#fac209" fill-opacity="1" /><text x="312.8" y="156.0" font-size="20px" dominant-baseline="middle" text-anchor="middle" font-family="Arial" font-weight="normal" fill="#ffffff" >RZ </text><text x="312.8" y="172.0" font-size="14.0px" dominant-baseline="middle" text-anchor="middle" font-family="Arial" font-weight="normal" fill="#ffffff" >0.0788 </text><rect x="72.8" y="200.0" width="80.0" height="40" rx="4" ry="4" stroke="#ffffff" stroke-width="0" fill="#fac209" fill-opacity="1" /><text x="112.8" y="216.0" font-size="20px" dominant-baseline="middle" text-anchor="middle" font-family="Arial" font-weight="normal" fill="#ffffff" >RX </text><text x="112.8" y="232.0" font-size="14.0px" dominant-baseline="middle" text-anchor="middle" font-family="Arial" font-weight="normal" fill="#ffffff" >-0.3417 </text><rect x="172.8" y="200.0" width="80.0" height="40" rx="4" ry="4" stroke="#ffffff" stroke-width="0" fill="#fac209" fill-opacity="1" /><text x="212.8" y="216.0" font-size="20px" dominant-baseline="middle" text-anchor="middle" font-family="Arial" font-weight="normal" fill="#ffffff" >RY </text><text x="212.8" y="232.0" font-size="14.0px" dominant-baseline="middle" text-anchor="middle" font-family="Arial" font-weight="normal" fill="#ffffff" >-0.1141 </text><rect x="272.8" y="200.0" width="80.0" height="40" rx="4" ry="4" stroke="#ffffff" stroke-width="0" fill="#fac209" fill-opacity="1" /><text x="312.8" y="216.0" font-size="20px" dominant-baseline="middle" text-anchor="middle" font-family="Arial" font-weight="normal" fill="#ffffff" >RZ </text><text x="312.8" y="232.0" font-size="14.0px" dominant-baseline="middle" text-anchor="middle" font-family="Arial" font-weight="normal" fill="#ffffff" >-0.0584 </text><rect x="372.8" y="140.0" width="80.0" height="100" rx="4" ry="4" stroke="#ffffff" stroke-width="0" fill="#fac209" fill-opacity="1" /><text x="412.8" y="186.0" font-size="20px" dominant-baseline="middle" text-anchor="middle" font-family="Arial" font-weight="normal" fill="#ffffff" >Rxx </text><text x="412.8" y="202.0" font-size="14.0px" dominant-baseline="middle" text-anchor="middle" font-family="Arial" font-weight="normal" fill="#ffffff" >-0.5353 </text><rect x="472.8" y="200.0" width="40.0" height="40" rx="4" ry="4" stroke="#ffffff" stroke-width="0" fill="#fac209" fill-opacity="1" /><text x="492.8" y="216.0" font-size="20px" dominant-baseline="middle" text-anchor="middle" font-family="Arial" font-weight="normal" fill="#ffffff" >RX </text><text x="492.8" y="232.0" font-size="14.0px" dominant-baseline="middle" text-anchor="middle" font-family="Arial" font-weight="normal" fill="#ffffff" >π/2 </text><rect x="472.8" y="140.0" width="40.0" height="40" rx="4" ry="4" stroke="#ffffff" stroke-width="0" fill="#fac209" fill-opacity="1" /><text x="492.8" y="156.0" font-size="20px" dominant-baseline="middle" text-anchor="middle" font-family="Arial" font-weight="normal" fill="#ffffff" >RX </text><text x="492.8" y="172.0" font-size="14.0px" dominant-baseline="middle" text-anchor="middle" font-family="Arial" font-weight="normal" fill="#ffffff" >π/2 </text><circle cx="552.8" cy="160.0" r="4" fill="#16acff" /><line x1="552.8" x2="552.8" y1="160.0" y2="220.0" stroke="#16acff" stroke-width="3" /><rect x="532.8" y="200.0" width="40" height="40" rx="4" ry="4" stroke="#ffffff" stroke-width="0" fill="#16acff" fill-opacity="1" /><line x1="538.8" x2="566.8" y1="220.0" y2="220.0" stroke="#ffffff" stroke-width="4" /><line x1="552.8" x2="552.8" y1="206.0" y2="234.0" stroke="#ffffff" stroke-width="4" /><rect x="592.8" y="200.0" width="80.0" height="40" rx="4" ry="4" stroke="#ffffff" stroke-width="0" fill="#fac209" fill-opacity="1" /><text x="632.8" y="216.0" font-size="20px" dominant-baseline="middle" text-anchor="middle" font-family="Arial" font-weight="normal" fill="#ffffff" >RZ </text><text x="632.8" y="232.0" font-size="14.0px" dominant-baseline="middle" text-anchor="middle" font-family="Arial" font-weight="normal" fill="#ffffff" >-0.9674 </text><circle cx="712.8" cy="160.0" r="4" fill="#16acff" /><line x1="712.8" x2="712.8" y1="160.0" y2="220.0" stroke="#16acff" stroke-width="3" /><rect x="692.8" y="200.0" width="40" height="40" rx="4" ry="4" stroke="#ffffff" stroke-width="0" fill="#16acff" fill-opacity="1" /><line x1="698.8" x2="726.8" y1="220.0" y2="220.0" stroke="#ffffff" stroke-width="4" /><line x1="712.8" x2="712.8" y1="206.0" y2="234.0" stroke="#ffffff" stroke-width="4" /><rect x="752.8" y="200.0" width="40.0" height="40" rx="4" ry="4" stroke="#ffffff" stroke-width="0" fill="#fac209" fill-opacity="1" /><text x="772.8" y="216.0" font-size="20px" dominant-baseline="middle" text-anchor="middle" font-family="Arial" font-weight="normal" fill="#ffffff" >RX </text><text x="772.8" y="232.0" font-size="14.0px" dominant-baseline="middle" text-anchor="middle" font-family="Arial" font-weight="normal" fill="#ffffff" >-π/2 </text><rect x="752.8" y="140.0" width="40.0" height="40" rx="4" ry="4" stroke="#ffffff" stroke-width="0" fill="#fac209" fill-opacity="1" /><text x="772.8" y="156.0" font-size="20px" dominant-baseline="middle" text-anchor="middle" font-family="Arial" font-weight="normal" fill="#ffffff" >RX </text><text x="772.8" y="172.0" font-size="14.0px" dominant-baseline="middle" text-anchor="middle" font-family="Arial" font-weight="normal" fill="#ffffff" >-π/2 </text><rect x="812.8" y="140.0" width="80.0" height="100" rx="4" ry="4" stroke="#ffffff" stroke-width="0" fill="#fac209" fill-opacity="1" /><text x="852.8" y="186.0" font-size="20px" dominant-baseline="middle" text-anchor="middle" font-family="Arial" font-weight="normal" fill="#ffffff" >Rzz </text><text x="852.8" y="202.0" font-size="14.0px" dominant-baseline="middle" text-anchor="middle" font-family="Arial" font-weight="normal" fill="#ffffff" >-0.0923 </text><rect x="912.8" y="140.0" width="80.0" height="40" rx="4" ry="4" stroke="#ffffff" stroke-width="0" fill="#fac209" fill-opacity="1" /><text x="952.8" y="156.0" font-size="20px" dominant-baseline="middle" text-anchor="middle" font-family="Arial" font-weight="normal" fill="#ffffff" >RX </text><text x="952.8" y="172.0" font-size="14.0px" dominant-baseline="middle" text-anchor="middle" font-family="Arial" font-weight="normal" fill="#ffffff" >-0.1431 </text><rect x="1012.8" y="140.0" width="80.0" height="40" rx="4" ry="4" stroke="#ffffff" stroke-width="0" fill="#fac209" fill-opacity="1" /><text x="1052.8" y="156.0" font-size="20px" dominant-baseline="middle" text-anchor="middle" font-family="Arial" font-weight="normal" fill="#ffffff" >RY </text><text x="1052.8" y="172.0" font-size="14.0px" dominant-baseline="middle" text-anchor="middle" font-family="Arial" font-weight="normal" fill="#ffffff" >0.0197 </text><rect x="1112.8" y="140.0" width="80.0" height="40" rx="4" ry="4" stroke="#ffffff" stroke-width="0" fill="#fac209" fill-opacity="1" /><text x="1152.8" y="156.0" font-size="20px" dominant-baseline="middle" text-anchor="middle" font-family="Arial" font-weight="normal" fill="#ffffff" >RZ </text><text x="1152.8" y="172.0" font-size="14.0px" dominant-baseline="middle" text-anchor="middle" font-family="Arial" font-weight="normal" fill="#ffffff" >-0.5208 </text><rect x="912.8" y="200.0" width="80.0" height="40" rx="4" ry="4" stroke="#ffffff" stroke-width="0" fill="#fac209" fill-opacity="1" /><text x="952.8" y="216.0" font-size="20px" dominant-baseline="middle" text-anchor="middle" font-family="Arial" font-weight="normal" fill="#ffffff" >RX </text><text x="952.8" y="232.0" font-size="14.0px" dominant-baseline="middle" text-anchor="middle" font-family="Arial" font-weight="normal" fill="#ffffff" >-0.5208 </text><rect x="1012.8" y="200.0" width="80.0" height="40" rx="4" ry="4" stroke="#ffffff" stroke-width="0" fill="#fac209" fill-opacity="1" /><text x="1052.8" y="216.0" font-size="20px" dominant-baseline="middle" text-anchor="middle" font-family="Arial" font-weight="normal" fill="#ffffff" >RY </text><text x="1052.8" y="232.0" font-size="14.0px" dominant-baseline="middle" text-anchor="middle" font-family="Arial" font-weight="normal" fill="#ffffff" >0.1716 </text><rect x="1112.8" y="200.0" width="80.0" height="40" rx="4" ry="4" stroke="#ffffff" stroke-width="0" fill="#fac209" fill-opacity="1" /><text x="1152.8" y="216.0" font-size="20px" dominant-baseline="middle" text-anchor="middle" font-family="Arial" font-weight="normal" fill="#ffffff" >RZ </text><text x="1152.8" y="232.0" font-size="14.0px" dominant-baseline="middle" text-anchor="middle" font-family="Arial" font-weight="normal" fill="#ffffff" >-0.0669 </text><circle cx="1232.8" cy="160.0" r="4" fill="#16acff" /><line x1="1232.8" x2="1232.8" y1="160.0" y2="220.0" stroke="#16acff" stroke-width="3" /><rect x="1212.8" y="200.0" width="40" height="40" rx="4" ry="4" stroke="#ffffff" stroke-width="0" fill="#16acff" fill-opacity="1" /><line x1="1218.8" x2="1246.8" y1="220.0" y2="220.0" stroke="#ffffff" stroke-width="4" /><line x1="1232.8" x2="1232.8" y1="206.0" y2="234.0" stroke="#ffffff" stroke-width="4" /><rect x="1272.8" y="80.0" width="80.0" height="40" rx="4" ry="4" stroke="#ffffff" stroke-width="0" fill="#fac209" fill-opacity="1" /><text x="1312.8" y="96.0" font-size="20px" dominant-baseline="middle" text-anchor="middle" font-family="Arial" font-weight="normal" fill="#ffffff" >RX </text><text x="1312.8" y="112.0" font-size="14.0px" dominant-baseline="middle" text-anchor="middle" font-family="Arial" font-weight="normal" fill="#ffffff" >0.0345 </text><rect x="1372.8" y="80.0" width="80.0" height="40" rx="4" ry="4" stroke="#ffffff" stroke-width="0" fill="#fac209" fill-opacity="1" /><text x="1412.8" y="96.0" font-size="20px" dominant-baseline="middle" text-anchor="middle" font-family="Arial" font-weight="normal" fill="#ffffff" >RY </text><text x="1412.8" y="112.0" font-size="14.0px" dominant-baseline="middle" text-anchor="middle" font-family="Arial" font-weight="normal" fill="#ffffff" >0.4014 </text><rect x="1472.8" y="80.0" width="80.0" height="40" rx="4" ry="4" stroke="#ffffff" stroke-width="0" fill="#fac209" fill-opacity="1" /><text x="1512.8" y="96.0" font-size="20px" dominant-baseline="middle" text-anchor="middle" font-family="Arial" font-weight="normal" fill="#ffffff" >RZ </text><text x="1512.8" y="112.0" font-size="14.0px" dominant-baseline="middle" text-anchor="middle" font-family="Arial" font-weight="normal" fill="#ffffff" >-0.2493 </text><rect x="1272.8" y="200.0" width="80.0" height="40" rx="4" ry="4" stroke="#ffffff" stroke-width="0" fill="#fac209" fill-opacity="1" /><text x="1312.8" y="216.0" font-size="20px" dominant-baseline="middle" text-anchor="middle" font-family="Arial" font-weight="normal" fill="#ffffff" >RX </text><text x="1312.8" y="232.0" font-size="14.0px" dominant-baseline="middle" text-anchor="middle" font-family="Arial" font-weight="normal" fill="#ffffff" >-0.4996 </text><rect x="1372.8" y="200.0" width="80.0" height="40" rx="4" ry="4" stroke="#ffffff" stroke-width="0" fill="#fac209" fill-opacity="1" /><text x="1412.8" y="216.0" font-size="20px" dominant-baseline="middle" text-anchor="middle" font-family="Arial" font-weight="normal" fill="#ffffff" >RY </text><text x="1412.8" y="232.0" font-size="14.0px" dominant-baseline="middle" text-anchor="middle" font-family="Arial" font-weight="normal" fill="#ffffff" >0.1002 </text><rect x="1472.8" y="200.0" width="80.0" height="40" rx="4" ry="4" stroke="#ffffff" stroke-width="0" fill="#fac209" fill-opacity="1" /><text x="1512.8" y="216.0" font-size="20px" dominant-baseline="middle" text-anchor="middle" font-family="Arial" font-weight="normal" fill="#ffffff" >RZ </text><text x="1512.8" y="232.0" font-size="14.0px" dominant-baseline="middle" text-anchor="middle" font-family="Arial" font-weight="normal" fill="#ffffff" >0.2513 </text><rect x="1572.8" y="80.0" width="80.0" height="160" rx="4" ry="4" stroke="#ffffff" stroke-width="0" fill="#fac209" fill-opacity="1" /><text x="1612.8" y="156.0" font-size="20px" dominant-baseline="middle" text-anchor="middle" font-family="Arial" font-weight="normal" fill="#ffffff" >Rxx </text><text x="1612.8" y="172.0" font-size="14.0px" dominant-baseline="middle" text-anchor="middle" font-family="Arial" font-weight="normal" fill="#ffffff" >0.3413 </text><circle cx="1572.8" cy="100.0" r="4" fill="#fac209" /><circle cx="1652.8" cy="100.0" r="4" fill="#fac209" /><circle cx="1572.8" cy="220.0" r="4" fill="#fac209" /><circle cx="1652.8" cy="220.0" r="4" fill="#fac209" /><rect x="1680.8" y="200.0" width="40.0" height="40" rx="4" ry="4" stroke="#ffffff" stroke-width="0" fill="#fac209" fill-opacity="1" /><text x="1700.8" y="216.0" font-size="20px" dominant-baseline="middle" text-anchor="middle" font-family="Arial" font-weight="normal" fill="#ffffff" >RX </text><text x="1700.8" y="232.0" font-size="14.0px" dominant-baseline="middle" text-anchor="middle" font-family="Arial" font-weight="normal" fill="#ffffff" >π/2 </text><rect x="1680.8" y="80.0" width="40.0" height="40" rx="4" ry="4" stroke="#ffffff" stroke-width="0" fill="#fac209" fill-opacity="1" /><text x="1700.8" y="96.0" font-size="20px" dominant-baseline="middle" text-anchor="middle" font-family="Arial" font-weight="normal" fill="#ffffff" >RX </text><text x="1700.8" y="112.0" font-size="14.0px" dominant-baseline="middle" text-anchor="middle" font-family="Arial" font-weight="normal" fill="#ffffff" >π/2 </text><circle cx="1760.8" cy="100.0" r="4" fill="#16acff" /><line x1="1760.8" x2="1760.8" y1="100.0" y2="220.0" stroke="#16acff" stroke-width="3" /><rect x="1740.8" y="200.0" width="40" height="40" rx="4" ry="4" stroke="#ffffff" stroke-width="0" fill="#16acff" fill-opacity="1" /><line x1="1746.8" x2="1774.8" y1="220.0" y2="220.0" stroke="#ffffff" stroke-width="4" /><line x1="1760.8" x2="1760.8" y1="206.0" y2="234.0" stroke="#ffffff" stroke-width="4" /><rect x="1800.8" y="200.0" width="80.0" height="40" rx="4" ry="4" stroke="#ffffff" stroke-width="0" fill="#fac209" fill-opacity="1" /><text x="1840.8" y="216.0" font-size="20px" dominant-baseline="middle" text-anchor="middle" font-family="Arial" font-weight="normal" fill="#ffffff" >RZ </text><text x="1840.8" y="232.0" font-size="14.0px" dominant-baseline="middle" text-anchor="middle" font-family="Arial" font-weight="normal" fill="#ffffff" >0.3549 </text><circle cx="1920.8" cy="100.0" r="4" fill="#16acff" /><line x1="1920.8" x2="1920.8" y1="100.0" y2="220.0" stroke="#16acff" stroke-width="3" /><rect x="1900.8" y="200.0" width="40" height="40" rx="4" ry="4" stroke="#ffffff" stroke-width="0" fill="#16acff" fill-opacity="1" /><line x1="1906.8" x2="1934.8" y1="220.0" y2="220.0" stroke="#ffffff" stroke-width="4" /><line x1="1920.8" x2="1920.8" y1="206.0" y2="234.0" stroke="#ffffff" stroke-width="4" /><rect x="1960.8" y="200.0" width="80.0" height="40" rx="4" ry="4" stroke="#ffffff" stroke-width="0" fill="#c77532" fill-opacity="1" /><text x="2000.8" y="216.0" font-size="20px" dominant-baseline="middle" text-anchor="middle" font-family="Arial" font-weight="normal" fill="#ffffff" >PFC </text><text x="2000.8" y="232.0" font-size="14.0px" dominant-baseline="middle" text-anchor="middle" font-family="Arial" font-weight="normal" fill="#ffffff" >p=0.0357 </text><rect x="2060.8" y="200.0" width="40.0" height="40" rx="4" ry="4" stroke="#ffffff" stroke-width="0" fill="#fac209" fill-opacity="1" /><text x="2080.8" y="216.0" font-size="20px" dominant-baseline="middle" text-anchor="middle" font-family="Arial" font-weight="normal" fill="#ffffff" >RX </text><text x="2080.8" y="232.0" font-size="14.0px" dominant-baseline="middle" text-anchor="middle" font-family="Arial" font-weight="normal" fill="#ffffff" >-π/2 </text><rect x="1960.8" y="80.0" width="40.0" height="40" rx="4" ry="4" stroke="#ffffff" stroke-width="0" fill="#fac209" fill-opacity="1" /><text x="1980.8" y="96.0" font-size="20px" dominant-baseline="middle" text-anchor="middle" font-family="Arial" font-weight="normal" fill="#ffffff" >RX </text><text x="1980.8" y="112.0" font-size="14.0px" dominant-baseline="middle" text-anchor="middle" font-family="Arial" font-weight="normal" fill="#ffffff" >-π/2 </text><rect x="2120.8" y="80.0" width="80.0" height="160" rx="4" ry="4" stroke="#ffffff" stroke-width="0" fill="#fac209" fill-opacity="1" /><text x="2160.8" y="156.0" font-size="20px" dominant-baseline="middle" text-anchor="middle" font-family="Arial" font-weight="normal" fill="#ffffff" >Rzz </text><text x="2160.8" y="172.0" font-size="14.0px" dominant-baseline="middle" text-anchor="middle" font-family="Arial" font-weight="normal" fill="#ffffff" >-0.1391 </text><circle cx="2120.8" cy="100.0" r="4" fill="#fac209" /><circle cx="2200.8" cy="100.0" r="4" fill="#fac209" /><circle cx="2120.8" cy="220.0" r="4" fill="#fac209" /><circle cx="2200.8" cy="220.0" r="4" fill="#fac209" /><rect x="2228.8" y="80.0" width="80.0" height="40" rx="4" ry="4" stroke="#ffffff" stroke-width="0" fill="#fac209" fill-opacity="1" /><text x="2268.8" y="96.0" font-size="20px" dominant-baseline="middle" text-anchor="middle" font-family="Arial" font-weight="normal" fill="#ffffff" >RX </text><text x="2268.8" y="112.0" font-size="14.0px" dominant-baseline="middle" text-anchor="middle" font-family="Arial" font-weight="normal" fill="#ffffff" >-0.0068 </text><rect x="2328.8" y="80.0" width="80.0" height="40" rx="4" ry="4" stroke="#ffffff" stroke-width="0" fill="#fac209" fill-opacity="1" /><text x="2368.8" y="96.0" font-size="20px" dominant-baseline="middle" text-anchor="middle" font-family="Arial" font-weight="normal" fill="#ffffff" >RY </text><text x="2368.8" y="112.0" font-size="14.0px" dominant-baseline="middle" text-anchor="middle" font-family="Arial" font-weight="normal" fill="#ffffff" >0.4019 </text><rect x="2428.8" y="80.0" width="80.0" height="40" rx="4" ry="4" stroke="#ffffff" stroke-width="0" fill="#c77532" fill-opacity="1" /><text x="2468.8" y="96.0" font-size="20px" dominant-baseline="middle" text-anchor="middle" font-family="Arial" font-weight="normal" fill="#ffffff" >PFC </text><text x="2468.8" y="112.0" font-size="14.0px" dominant-baseline="middle" text-anchor="middle" font-family="Arial" font-weight="normal" fill="#ffffff" >p=0.1733 </text><rect x="2528.8" y="80.0" width="80.0" height="40" rx="4" ry="4" stroke="#ffffff" stroke-width="0" fill="#fac209" fill-opacity="1" /><text x="2568.8" y="96.0" font-size="20px" dominant-baseline="middle" text-anchor="middle" font-family="Arial" font-weight="normal" fill="#ffffff" >RZ </text><text x="2568.8" y="112.0" font-size="14.0px" dominant-baseline="middle" text-anchor="middle" font-family="Arial" font-weight="normal" fill="#ffffff" >-0.616 </text><rect x="2228.8" y="200.0" width="80.0" height="40" rx="4" ry="4" stroke="#ffffff" stroke-width="0" fill="#fac209" fill-opacity="1" /><text x="2268.8" y="216.0" font-size="20px" dominant-baseline="middle" text-anchor="middle" font-family="Arial" font-weight="normal" fill="#ffffff" >RX </text><text x="2268.8" y="232.0" font-size="14.0px" dominant-baseline="middle" text-anchor="middle" font-family="Arial" font-weight="normal" fill="#ffffff" >-0.616 </text><rect x="2328.8" y="200.0" width="80.0" height="40" rx="4" ry="4" stroke="#ffffff" stroke-width="0" fill="#fac209" fill-opacity="1" /><text x="2368.8" y="216.0" font-size="20px" dominant-baseline="middle" text-anchor="middle" font-family="Arial" font-weight="normal" fill="#ffffff" >RY </text><text x="2368.8" y="232.0" font-size="14.0px" dominant-baseline="middle" text-anchor="middle" font-family="Arial" font-weight="normal" fill="#ffffff" >0.1168 </text><rect x="2428.8" y="200.0" width="80.0" height="40" rx="4" ry="4" stroke="#ffffff" stroke-width="0" fill="#fac209" fill-opacity="1" /><text x="2468.8" y="216.0" font-size="20px" dominant-baseline="middle" text-anchor="middle" font-family="Arial" font-weight="normal" fill="#ffffff" >RZ </text><text x="2468.8" y="232.0" font-size="14.0px" dominant-baseline="middle" text-anchor="middle" font-family="Arial" font-weight="normal" fill="#ffffff" >0.5271 </text><circle cx="2648.8" cy="100.0" r="4" fill="#16acff" /><line x1="2648.8" x2="2648.8" y1="100.0" y2="220.0" stroke="#16acff" stroke-width="3" /><rect x="2628.8" y="200.0" width="40" height="40" rx="4" ry="4" stroke="#ffffff" stroke-width="0" fill="#16acff" fill-opacity="1" /><line x1="2634.8" x2="2662.8" y1="220.0" y2="220.0" stroke="#ffffff" stroke-width="4" /><line x1="2648.8" x2="2648.8" y1="206.0" y2="234.0" stroke="#ffffff" stroke-width="4" /><rect x="2688.8" y="200.0" width="80.0" height="40" rx="4" ry="4" stroke="#ffffff" stroke-width="0" fill="#fac209" fill-opacity="1" /><text x="2728.8" y="216.0" font-size="20px" dominant-baseline="middle" text-anchor="middle" font-family="Arial" font-weight="normal" fill="#ffffff" >RZ </text><text x="2728.8" y="232.0" font-size="14.0px" dominant-baseline="middle" text-anchor="middle" font-family="Arial" font-weight="normal" fill="#ffffff" >0.0198 </text><rect x="2788.8" y="200.0" width="80.0" height="40" rx="4" ry="4" stroke="#ffffff" stroke-width="0" fill="#fac209" fill-opacity="1" /><text x="2828.8" y="216.0" font-size="20px" dominant-baseline="middle" text-anchor="middle" font-family="Arial" font-weight="normal" fill="#ffffff" >RY </text><text x="2828.8" y="232.0" font-size="14.0px" dominant-baseline="middle" text-anchor="middle" font-family="Arial" font-weight="normal" fill="#ffffff" >-0.3287 </text><rect x="2888.8" y="200.0" width="80.0" height="40" rx="4" ry="4" stroke="#ffffff" stroke-width="0" fill="#fac209" fill-opacity="1" /><text x="2928.8" y="216.0" font-size="20px" dominant-baseline="middle" text-anchor="middle" font-family="Arial" font-weight="normal" fill="#ffffff" >RX </text><text x="2928.8" y="232.0" font-size="14.0px" dominant-baseline="middle" text-anchor="middle" font-family="Arial" font-weight="normal" fill="#ffffff" >-0.5469 </text><rect x="1272.8" y="20.0" width="80.0" height="40" rx="4" ry="4" stroke="#ffffff" stroke-width="0" fill="#c77532" fill-opacity="1" /><text x="1312.8" y="36.0" font-size="20px" dominant-baseline="middle" text-anchor="middle" font-family="Arial" font-weight="normal" fill="#ffffff" >BFC </text><text x="1312.8" y="52.0" font-size="14.0px" dominant-baseline="middle" text-anchor="middle" font-family="Arial" font-weight="normal" fill="#ffffff" >p=1/20 </text><rect x="2688.8" y="80.0" width="80.0" height="40" rx="4" ry="4" stroke="#ffffff" stroke-width="0" fill="#c77532" fill-opacity="1" /><text x="2728.8" y="96.0" font-size="20px" dominant-baseline="middle" text-anchor="middle" font-family="Arial" font-weight="normal" fill="#ffffff" >DC </text><text x="2728.8" y="112.0" font-size="14.0px" dominant-baseline="middle" text-anchor="middle" font-family="Arial" font-weight="normal" fill="#ffffff" >p=1/20 </text><rect x="2688.8" y="140.0" width="80.0" height="40" rx="4" ry="4" stroke="#ffffff" stroke-width="0" fill="#c77532" fill-opacity="1" /><text x="2728.8" y="156.0" font-size="20px" dominant-baseline="middle" text-anchor="middle" font-family="Arial" font-weight="normal" fill="#ffffff" >PFC </text><text x="2728.8" y="172.0" font-size="14.0px" dominant-baseline="middle" text-anchor="middle" font-family="Arial" font-weight="normal" fill="#ffffff" >p=1/20 </text><rect x="2988.8" y="200.0" width="80.0" height="40" rx="4" ry="4" stroke="#ffffff" stroke-width="0" fill="#c77532" fill-opacity="1" /><text x="3028.8" y="216.0" font-size="20px" dominant-baseline="middle" text-anchor="middle" font-family="Arial" font-weight="normal" fill="#ffffff" >BFC </text><text x="3028.8" y="232.0" font-size="14.0px" dominant-baseline="middle" text-anchor="middle" font-family="Arial" font-weight="normal" fill="#ffffff" >p=1/20 </text><rect x="2788.8" y="80.0" width="40" height="40" rx="4" ry="4" stroke="#ffffff" stroke-width="0" fill="#ff7272" fill-opacity="1" /><circle cx="2808.8" cy="110.4" r="1.6" fill="#ffffff" /><path d="M 2796.0 110.4 A 12.8 12.8 0 0 1 2821.6000000000004 110.4" stroke="#ffffff" stroke-width="2.4000000000000004" fill-opacity="0" /><path d="M 2812.901848317486 93.93539030917347 L 2821.2156921938167 89.13539030917347 L 2821.2156921938167 98.73539030917347 L 2817.8901546432844 96.81539030917347 L 2810.04707658145 110.4 L 2808.3843078061836 109.44 L 2816.2273858680182 95.85539030917347 Z" fill="#ffffff" /><rect x="3088.8" y="200.0" width="40" height="40" rx="4" ry="4" stroke="#ffffff" stroke-width="0" fill="#ff7272" fill-opacity="1" /><circle cx="3108.8" cy="230.4" r="1.6" fill="#ffffff" /><path d="M 3096.0 230.4 A 12.8 12.8 0 0 1 3121.6000000000004 230.4" stroke="#ffffff" stroke-width="2.4000000000000004" fill-opacity="0" /><path d="M 3112.901848317486 213.93539030917347 L 3121.2156921938167 209.13539030917346 L 3121.2156921938167 218.73539030917345 L 3117.8901546432844 216.81539030917347 L 3110.04707658145 230.4 L 3108.3843078061836 229.44 L 3116.2273858680182 215.85539030917346 Z" fill="#ffffff" /></svg>